<svg width="136" height="48" viewBox="0 0 136 48" fill="none" xmlns="http://www.w3.org/2000/svg">
<path d="M18.4272 1.12056C20.6297 -0.186688 23.3703 -0.186686 25.5728 1.12056L32.75 5.38046L40.0278 9.46615C42.2611 10.7199 43.6314 13.0934 43.6006 15.6544L43.5 24L43.6006 32.3456C43.6314 34.9066 42.2611 37.2801 40.0278 38.5338L32.75 42.6195L25.5728 46.8794C23.3703 48.1867 20.6297 48.1867 18.4272 46.8794L11.25 42.6195L3.97222 38.5338C1.73886 37.2801 0.368567 34.9066 0.39943 32.3456L0.500002 24L0.39943 15.6544C0.368567 13.0934 1.73886 10.7199 3.97223 9.46615L11.25 5.38046L18.4272 1.12056Z" fill="#912CF6"/>
<path d="M54.7614 31V16.4545H56.5227V23.6705H56.6932L63.2273 16.4545H65.5284L59.4205 23.017L65.5284 31H63.3977L58.3409 24.2386L56.5227 26.2841V31H54.7614ZM71.354 31.2273C70.3029 31.2273 69.3962 30.9953 68.6339 30.5312C67.8763 30.0625 67.2915 29.4091 66.8796 28.571C66.4724 27.7282 66.2688 26.7481 66.2688 25.6307C66.2688 24.5133 66.4724 23.5284 66.8796 22.6761C67.2915 21.8191 67.8645 21.1515 68.5984 20.6733C69.337 20.1903 70.1987 19.9489 71.1836 19.9489C71.7518 19.9489 72.3129 20.0436 72.8668 20.233C73.4208 20.4223 73.9251 20.7301 74.3796 21.1562C74.8342 21.5777 75.1964 22.1364 75.4663 22.8324C75.7362 23.5284 75.8711 24.3854 75.8711 25.4034V26.1136H67.462V24.6648H74.1665C74.1665 24.0492 74.0434 23.5 73.7972 23.017C73.5558 22.5341 73.2101 22.1529 72.7603 21.8736C72.3152 21.5942 71.7897 21.4545 71.1836 21.4545C70.516 21.4545 69.9383 21.6203 69.4506 21.9517C68.9677 22.2784 68.596 22.7045 68.3356 23.2301C68.0752 23.7557 67.945 24.3191 67.945 24.9205V25.8864C67.945 26.7102 68.087 27.4086 68.3711 27.9815C68.6599 28.5497 69.06 28.983 69.5714 29.2812C70.0827 29.5748 70.677 29.7216 71.354 29.7216C71.7944 29.7216 72.1921 29.66 72.5472 29.5369C72.9071 29.4091 73.2172 29.2197 73.4776 28.9688C73.738 28.7131 73.9393 28.3958 74.0813 28.017L75.7006 28.4716C75.5302 29.0208 75.2437 29.5038 74.8413 29.9205C74.4388 30.3324 73.9416 30.6544 73.3498 30.8864C72.7579 31.1136 72.0927 31.2273 71.354 31.2273ZM78.4208 35.0909V20.0909H80.0401V21.8239H80.239C80.3621 21.6345 80.5326 21.393 80.7504 21.0994C80.9729 20.8011 81.2901 20.536 81.7021 20.304C82.1187 20.0672 82.6822 19.9489 83.3924 19.9489C84.311 19.9489 85.1206 20.1785 85.8214 20.6378C86.5221 21.0971 87.069 21.7481 87.462 22.5909C87.855 23.4337 88.0515 24.428 88.0515 25.5739C88.0515 26.7292 87.855 27.7306 87.462 28.5781C87.069 29.4209 86.5245 30.0743 85.8285 30.5384C85.1325 30.9976 84.3299 31.2273 83.4208 31.2273C82.7201 31.2273 82.159 31.1113 81.7376 30.8793C81.3162 30.6425 80.9918 30.375 80.7646 30.0767C80.5373 29.7737 80.3621 29.5227 80.239 29.3239H80.0969V35.0909H78.4208ZM80.0685 25.5455C80.0685 26.3693 80.1893 27.0961 80.4308 27.7259C80.6722 28.3509 81.025 28.8409 81.489 29.196C81.953 29.5464 82.5212 29.7216 83.1935 29.7216C83.8943 29.7216 84.479 29.5369 84.9478 29.1676C85.4213 28.7936 85.7764 28.2917 86.0131 27.6619C86.2546 27.0275 86.3754 26.322 86.3754 25.5455C86.3754 24.7784 86.257 24.0871 86.0202 23.4716C85.7882 22.8513 85.4355 22.3613 84.962 22.0014C84.4933 21.6368 83.9038 21.4545 83.1935 21.4545C82.5117 21.4545 81.9388 21.6274 81.4748 21.973C81.0108 22.3139 80.6604 22.7921 80.4237 23.4077C80.1869 24.0185 80.0685 24.7311 80.0685 25.5455ZM90.6083 31V20.0909H92.2276V21.7386H92.3413C92.5401 21.1989 92.9 20.7609 93.4208 20.4247C93.9416 20.0885 94.5288 19.9205 95.1822 19.9205C95.3053 19.9205 95.4592 19.9228 95.6438 19.9276C95.8285 19.9323 95.9682 19.9394 96.0629 19.9489V21.6534C96.006 21.6392 95.8758 21.6179 95.6722 21.5895C95.4734 21.5563 95.2627 21.5398 95.0401 21.5398C94.5098 21.5398 94.0363 21.651 93.6197 21.8736C93.2077 22.0914 92.881 22.3944 92.6396 22.7827C92.4028 23.1662 92.2844 23.6042 92.2844 24.0966V31H90.6083ZM98.0497 31V20.0909H99.7259V31H98.0497ZM98.902 18.2727C98.5753 18.2727 98.2936 18.1615 98.0568 17.9389C97.8248 17.7164 97.7088 17.4489 97.7088 17.1364C97.7088 16.8239 97.8248 16.5563 98.0568 16.3338C98.2936 16.1113 98.5753 16 98.902 16C99.2287 16 99.508 16.1113 99.7401 16.3338C99.9768 16.5563 100.095 16.8239 100.095 17.1364C100.095 17.4489 99.9768 17.7164 99.7401 17.9389C99.508 18.1615 99.2287 18.2727 98.902 18.2727ZM107.199 35.3182C106.39 35.3182 105.694 35.214 105.111 35.0057C104.529 34.8021 104.043 34.5322 103.655 34.196C103.272 33.8646 102.966 33.5095 102.739 33.1307L104.074 32.1932C104.226 32.392 104.417 32.6193 104.65 32.875C104.882 33.1354 105.199 33.3603 105.601 33.5497C106.008 33.7438 106.541 33.8409 107.199 33.8409C108.08 33.8409 108.807 33.6278 109.38 33.2017C109.953 32.7756 110.239 32.108 110.239 31.1989V28.983H110.097C109.974 29.1818 109.799 29.428 109.571 29.7216C109.349 30.0104 109.027 30.2685 108.605 30.4957C108.189 30.7183 107.625 30.8295 106.915 30.8295C106.034 30.8295 105.244 30.6212 104.543 30.2045C103.847 29.7879 103.295 29.1818 102.888 28.3864C102.486 27.5909 102.284 26.625 102.284 25.4886C102.284 24.3712 102.481 23.3982 102.874 22.5696C103.267 21.7363 103.814 21.0923 104.515 20.6378C105.215 20.1785 106.025 19.9489 106.944 19.9489C107.654 19.9489 108.217 20.0672 108.634 20.304C109.055 20.536 109.377 20.8011 109.6 21.0994C109.827 21.393 110.002 21.6345 110.125 21.8239H110.296V20.0909H111.915V31.3125C111.915 32.25 111.702 33.0123 111.276 33.5994C110.855 34.1913 110.286 34.6245 109.571 34.8991C108.861 35.1785 108.07 35.3182 107.199 35.3182ZM107.142 29.3239C107.815 29.3239 108.383 29.17 108.847 28.8622C109.311 28.5545 109.664 28.1117 109.905 27.5341C110.147 26.9564 110.267 26.2652 110.267 25.4602C110.267 24.6742 110.149 23.9806 109.912 23.3793C109.676 22.7779 109.325 22.3068 108.861 21.9659C108.397 21.625 107.824 21.4545 107.142 21.4545C106.432 21.4545 105.84 21.6345 105.367 21.9943C104.898 22.3542 104.545 22.8371 104.309 23.4432C104.077 24.0492 103.961 24.7216 103.961 25.4602C103.961 26.2178 104.079 26.8878 104.316 27.4702C104.557 28.0478 104.912 28.5024 105.381 28.8338C105.855 29.1605 106.442 29.3239 107.142 29.3239ZM121.858 26.5398V20.0909H123.534V31H121.858V29.1534H121.745C121.489 29.7074 121.091 30.1785 120.551 30.5668C120.012 30.9503 119.33 31.142 118.506 31.142C117.824 31.142 117.218 30.9929 116.688 30.6946C116.158 30.3916 115.741 29.937 115.438 29.331C115.135 28.7202 114.983 27.9508 114.983 27.0227V20.0909H116.659V26.9091C116.659 27.7045 116.882 28.339 117.327 28.8125C117.777 29.286 118.35 29.5227 119.046 29.5227C119.462 29.5227 119.886 29.4162 120.317 29.2031C120.753 28.9901 121.117 28.6634 121.411 28.223C121.709 27.7827 121.858 27.2216 121.858 26.5398ZM128.281 24.4375V31H126.604V20.0909H128.224V21.7955H128.366C128.621 21.2415 129.01 20.7964 129.531 20.4602C130.051 20.1193 130.724 19.9489 131.548 19.9489C132.286 19.9489 132.933 20.1004 133.487 20.4034C134.04 20.7017 134.471 21.1562 134.779 21.767C135.087 22.3731 135.241 23.1402 135.241 24.0682V31H133.565V24.1818C133.565 23.3248 133.342 22.6572 132.897 22.179C132.452 21.696 131.841 21.4545 131.065 21.4545C130.53 21.4545 130.051 21.5705 129.63 21.8026C129.213 22.0346 128.884 22.3731 128.643 22.8182C128.401 23.2633 128.281 23.803 128.281 24.4375Z" fill="#912CF6"/>
<path d="M14.4659 34V13.6364H16.9318V23.7386H17.1705L26.3182 13.6364H29.5398L20.9886 22.8239L29.5398 34H26.5568L19.4773 24.5341L16.9318 27.3977V34H14.4659Z" fill="white"/>
</svg>